<?xml version="1.0" standalone="no"?>
<!DOCTYPE svg PUBLIC "-//W3C//DTD SVG 20010904//EN"
 "http://www.w3.org/TR/2001/REC-SVG-20010904/DTD/svg10.dtd">
<svg version="1.0" xmlns="http://www.w3.org/2000/svg"
 width="160.000000pt" height="160.000000pt" viewBox="0 0 160.000000 160.000000"
 preserveAspectRatio="xMidYMid meet">
<metadata>
Created by potrace 1.14, written by Peter Selinger 2001-2017
</metadata>
<g transform="translate(0.000000,160.000000) scale(0.100000,-0.100000)"
fill="#000000" stroke="none">
<path d="M655 1526 c-278 -53 -501 -259 -576 -533 -12 -42 -35 -102 -51 -133
-24 -47 -29 -66 -26 -116 l3 -59 49 95 c142 279 300 430 534 509 160 54 346
32 487 -58 38 -25 47 -26 180 -26 77 0 160 -4 184 -9 l43 -9 -16 30 c-16 32
-34 43 -68 43 -11 0 -54 32 -98 73 -86 81 -190 141 -305 177 -89 27 -244 35
-340 16z"/>
<path d="M690 1209 c0 -5 5 -7 10 -4 6 3 10 8 10 11 0 2 -4 4 -10 4 -5 0 -10
-5 -10 -11z"/>
<path d="M626 1145 c-3 -8 -1 -15 4 -15 6 0 10 7 10 15 0 8 -2 15 -4 15 -2 0
-6 -7 -10 -15z"/>
<path d="M1138 1139 c-71 -10 -149 -43 -179 -75 -22 -23 -22 -24 -4 -44 32
-36 115 -17 115 27 0 21 54 58 118 79 72 25 56 29 -50 13z"/>
<path d="M1415 1143 c-144 -19 -278 -122 -322 -248 -13 -36 -18 -78 -17 -149
l1 -99 52 -45 c91 -79 170 -196 210 -315 l17 -48 23 25 c20 21 22 29 13 54 -9
26 -6 35 15 67 14 21 40 70 58 109 82 179 87 339 19 574 -5 19 -3 22 19 22 24
0 25 2 16 30 -11 31 -22 34 -104 23z"/>
<path d="M283 1027 c-87 -83 -133 -157 -133 -212 0 -59 12 -64 155 -69 223 -8
393 -66 504 -174 36 -35 45 -46 24 -32 -58 38 -236 118 -303 136 -36 9 -96 17
-135 18 -108 1 -142 -23 -228 -158 -59 -93 -68 -113 -61 -134 12 -33 28 -38
40 -11 10 21 12 19 47 -28 55 -75 157 -166 232 -208 114 -64 195 -87 331 -92
148 -7 235 10 355 68 82 40 90 40 102 4 2 -5 15 -2 30 8 l26 17 -29 65 c-69
154 -182 315 -297 427 -79 76 -121 92 -263 103 -106 8 -159 20 -215 46 -38 18
-47 28 -65 76 -11 31 -24 94 -28 142 l-7 86 -82 -78z"/>
</g>
</svg>
